<svg xmlns="http://www.w3.org/2000/svg" width="1600" height="630" viewBox="0 0 1600 630"><g><g><path fill="#fff" d="M0 0h1600v630H0z"/></g><g><path fill="#a4eecb" d="M299.17 197.17l8.66-5 5 8.66-8.66 5z"/></g><g opacity=".5"><path fill="#a4eecb" d="M1031.009 286.296l5.694-3.287 3.288 5.694-5.694 3.288z"/></g><g><path fill="#a4eecb" d="M585.876 310.464l9.66-2.588 2.588 9.66-9.66 2.588z"/></g><g><path fill="#a4eecb" d="M1240.098 242.552l9.35 3.545-3.546 9.35-9.35-3.545z"/></g><g><path fill="#a4eecb" d="M1044.15 178.175l8.675 4.975-4.975 8.675-8.675-4.975z"/></g><g opacity=".5"><path fill="#a4eecb" d="M885.17 378.83l5-8.66 8.66 5-5 8.66z"/></g><g><path fill="#a4eecb" d="M413.8 255.262l16.937 4.539-4.538 16.936-16.937-4.538z"/></g><g><path fill="#a4eecb" d="M810.547 276.47l3.982 17.077-17.076 3.982-3.982-17.076z"/></g><g opacity=".5"><path fill="#a4eecb" d="M525.8 410.262l16.937 4.539-4.538 16.936-16.937-4.538z"/></g><g><path fill="#a4eecb" d="M762.78 163.03l11.69-6.75 6.749 11.69-11.69 6.749z"/></g><g><path fill="#a4eecb" d="M1141.209 432.024l8.767 15.185-15.185 8.767-8.767-15.185z"/></g><g opacity=".5"><path fill="#a4eecb" d="M1440.01 236.558l-21.568 12.452-12.453-21.568 21.569-12.453z"/></g><g opacity=".5"><path fill="#a4eecb" d="M219.01 322.442l-12.452 21.568-21.569-12.452 12.453-21.569z"/></g></g></svg>